# 3ds Max Wavefront OBJ Exporter v0.97b - (c)2007 guruware
# File Created: 15.09.2021 15:49:15

mtllib ???\stairs.mtl

#
# object Box044
#

v  -1024.0559 204.1346 -21.0634
v  -1024.0559 204.1346 -111.6364
v  -691.8245 204.1346 -111.6364
v  -691.8245 204.1346 -21.0634
v  -691.8245 270.6998 -21.0634
v  -691.8245 270.6998 -111.6364
v  -1024.0559 270.6998 -111.6364
v  -1024.0559 270.6998 -21.0634
v  -691.8245 237.7397 -111.6364
v  -691.8245 237.7397 -21.0634
v  -691.8245 204.1346 -292.7824
v  -1024.0559 204.1346 -292.7824
v  -1024.0559 237.7397 -292.7824
v  -691.8245 237.7397 -292.7824
v  -1024.0559 204.1346 -202.2094
v  -1024.0559 237.7397 -111.6364
v  -1024.0559 237.7397 -202.2094
v  -1024.0559 204.1346 69.5096
v  -691.8245 204.1346 69.5096
v  -691.8245 237.7397 69.5096
v  -1024.0559 237.7397 69.5096
v  -691.8245 204.1346 -202.2094
v  -691.8245 331.7534 -202.2094
v  -691.8245 331.7534 -292.7824
v  -1024.0559 331.7534 -292.7824
v  -1024.0559 331.7534 -202.2094
v  -691.8245 301.2266 -111.6364
v  -691.8245 301.2266 -202.2094
v  -1024.0559 301.2266 -202.2094
v  -1024.0559 301.2266 -111.6364
v  -1024.0559 237.7397 -21.0634
v  -691.8245 237.7397 -202.2094
v  -1024.0559 270.6998 -292.7824
v  -691.8245 270.6998 -292.7824
v  -1024.0559 270.6998 -202.2094
v  -691.8245 270.6998 -202.2094
v  -691.8245 301.2266 -292.7824
v  -1024.0559 301.2266 -292.7824
# 38 vertices

vn -0.7071 -0.7071 -0.0000
vn 0.7071 -0.7071 -0.0000
vn 0.5774 0.5774 0.5774
vn 0.9045 0.3015 0.3015
vn -0.9045 0.3015 0.3015
vn -0.5774 0.5774 0.5774
vn 1.0000 0.0000 -0.0000
vn 0.5774 -0.5774 -0.5774
vn -0.5774 -0.5774 -0.5774
vn -0.7071 0.0000 -0.7071
vn 0.7071 0.0000 -0.7071
vn -0.7071 -0.7071 0.0000
vn -1.0000 0.0000 -0.0000
vn -1.0000 0.0000 0.0000
vn -0.5774 -0.5774 0.5774
vn 0.5774 -0.5774 0.5774
vn 0.5774 0.5774 -0.5774
vn -0.5774 0.5774 -0.5774
# 18 vertex normals

vt 0.7500 1.0000 0.0000
vt 0.5000 1.0000 0.0000
vt 0.5000 0.0000 0.0000
vt 0.7500 0.0000 0.0000
vt 0.2500 0.0000 0.0000
vt 0.2500 1.0000 0.0000
vt 0.0000 0.0000 0.0000
vt 1.0000 0.0000 0.0000
vt 1.0000 1.0000 0.0000
vt 0.0000 1.0000 0.0000
# 10 texture coords

o Box044
g Box044
usemtl wire_115115115
s 2
f 1/1/1 2/2/1 3/3/2 4/4/2 
s 4
f 5/5/3 6/3/4 7/2/5 8/6/6 
s 8
f 4/5/2 3/3/2 9/2/7 10/6/4 
s 16
f 11/7/8 12/8/9 13/9/10 14/10/11 
s 32
f 15/5/12 2/3/1 16/2/13 17/6/14 
s 64
f 18/7/15 19/8/16 20/9/3 21/10/6 
s 2
f 15/6/12 12/10/9 11/7/8 22/5/2 
f 2/2/1 15/6/12 22/5/2 3/3/2 
f 4/4/2 19/8/16 18/9/15 1/1/1 
s 4
f 23/4/3 24/8/17 25/9/18 26/1/6 
f 27/3/3 28/4/4 29/1/5 30/2/6 
f 31/6/5 21/10/6 20/7/3 10/5/4 
s 8
f 22/4/2 11/8/8 14/9/11 32/1/7 
f 3/3/2 22/4/2 32/1/7 9/2/7 
f 10/6/4 20/10/3 19/7/16 4/5/2 
s 32
f 1/4/1 18/8/15 21/9/6 31/1/5 
f 2/3/1 1/4/1 31/1/5 16/2/13 
f 17/6/14 13/10/10 12/7/9 15/5/12 
s off
f 14/8/11 13/9/10 33/9/10 34/8/11 
f 13/9/10 17/1/14 35/1/14 33/9/10 
f 17/1/14 16/2/13 7/2/5 35/1/14 
f 16/2/13 31/6/5 8/6/6 7/2/5 
f 31/6/5 10/5/4 5/5/3 8/6/6 
f 10/5/4 9/3/7 6/3/4 5/5/3 
f 9/3/7 32/4/7 36/4/7 6/3/4 
f 32/4/7 14/8/11 34/8/11 36/4/7 
f 7/2/5 6/3/4 27/3/3 30/2/6 
f 6/3/4 36/4/7 28/4/4 27/3/3 
f 36/4/7 34/8/11 37/8/11 28/4/4 
f 34/8/11 33/9/10 38/9/10 37/8/11 
f 33/9/10 35/1/14 29/1/5 38/9/10 
f 35/1/14 7/2/5 30/2/6 29/1/5 
f 29/1/5 28/4/4 23/4/3 26/1/6 
f 28/4/4 37/8/11 24/8/17 23/4/3 
f 37/8/11 38/9/10 25/9/18 24/8/17 
f 38/9/10 29/1/5 26/1/6 25/9/18 
# 36 polygons

